Coordinates
version=1
nRows=24
nColumns=24
inDegrees=yes

Units are S.I. units (second, meters, Newtons, ...)
Angles are in degrees.

endheader
time	pelvis_tilt	pelvis_list	pelvis_rotation	pelvis_tx	pelvis_ty	pelvis_tz	hip_flexion_r	hip_adduction_r	hip_rotation_r	knee_angle_r	ankle_angle_r	subtalar_angle_r	mtp_angle_r	hip_flexion_l	hip_adduction_l	hip_rotation_l	knee_angle_l	ankle_angle_l	subtalar_angle_l	mtp_angle_l	lumbar_extension	lumbar_bending	lumbar_rotation
      0.55000000	      0.32864810	      6.25962841	     -1.76236482	     -0.82873414	      1.05569133	      0.32452727	     21.58955052	     -2.87068530	     -8.74965779	      0.76127437	     -1.20788643	     -1.03392979	      0.07540332	    -15.72686213	     11.52801308	      1.79093128	     -2.48075695	      4.95046655	     -6.24296851	      0.02556481	      3.05877978	     -4.28487217	     -1.38751470
      0.55416667	      0.32566590	      6.25458781	     -1.79737008	     -0.82313381	      1.05534309	      0.32466856	     21.50839129	     -2.77669836	     -8.68100116	      0.64794313	     -1.20085961	     -0.96844306	      0.08562759	    -15.84375339	     11.52038352	      1.79910286	     -2.88050405	      4.95828208	     -6.26162895	      0.02512510	      3.11836723	     -4.26242421	     -1.41338908
      0.55833333	      0.31402208	      6.24202970	     -1.84529140	     -0.81744496	      1.05499193	      0.32479382	     21.44126922	     -2.67751421	     -8.58600145	      0.46546397	     -1.20073685	     -0.89748190	      0.09731273	    -15.95166560	     11.50887921	      1.80869395	     -3.28424105	      4.95637511	     -6.26492443	      0.02589977	      3.16364639	     -4.22491283	     -1.44152772
      0.56250000	      0.30486273	      6.22365021	     -1.89421012	     -0.81172275	      1.05467297	      0.32489746	     21.37485058	     -2.57982853	     -8.46937904	      0.22503965	     -1.21395366	     -0.83161207	      0.10938520	    -16.04489838	     11.49230341	      1.81057248	     -3.72168089	      4.94441797	     -6.25749104	      0.02790356	      3.20266297	     -4.17848938	     -1.46790361
      0.56666667	      0.30128847	      6.20450999	     -1.94096594	     -0.80595963	      1.05437982	      0.32497896	     21.30268943	     -2.49003623	     -8.33211628	     -0.06437612	     -1.24447766	     -0.77417735	      0.12137367	    -16.13024443	     11.47393150	      1.80432286	     -4.19041294	      4.91752543	     -6.23942754	      0.03104321	      3.24275915	     -4.12564350	     -1.49185320
      0.57083333	      0.29079975	      6.17799730	     -2.11655839	     -0.80013852	      1.05402923	      0.32525085	     21.25610903	     -2.35066495	     -7.98843950	     -0.39734244	     -1.35116014	     -0.64170335	      0.16917101	    -16.18529253	     11.48020896	      1.57375636	     -4.67233855	      4.86565142	     -6.09810480	      0.04919889	      3.21875517	     -4.04791727	     -1.56580653
      0.57500000	      0.32467965	      6.13644425	     -2.22797018	     -0.79429511	      1.05382591	      0.32550036	     21.13652514	     -2.21887374	     -7.68161240	     -0.72688355	     -1.51600486	     -0.72685983	      0.25234992	    -16.26289553	     11.44470930	      1.31672378	     -5.21199553	      4.78914058	     -5.79405763	      0.09390354	      3.24684127	     -4.01627187	     -1.59204221
      0.57916667	      0.33801606	      6.10566184	     -2.23015681	     -0.78845454	      1.05367918	      0.32547088	     21.03134180	     -2.15696182	     -7.54955497	     -1.09819711	     -1.57558446	     -0.73037381	      0.26268227	    -16.31383812	     11.39764823	      1.34674235	     -5.79188450	      4.75137830	     -5.77302283	      0.10055393	      3.31017689	     -3.95260632	     -1.59539640
      0.58333333	      0.31037335	      6.07812696	     -2.36741600	     -0.78257581	      1.05343094	      0.32574629	     20.98280715	     -2.03987857	     -7.14728771	     -1.46362684	     -1.92882871	     -0.84551364	      0.32165792	    -16.27948962	     11.37938749	      1.03666763	     -6.41024318	      4.60318666	     -5.50566127	      0.14742418	      3.25855500	     -3.84185605	     -1.62434247
      0.58750000	      0.35267755	      6.03825098	     -2.37308581	     -0.77670290	      1.05339703	      0.32570613	     20.83737639	     -1.98407978	     -6.98548460	     -1.84273937	     -2.02456074	     -0.87419962	      0.33534573	    -16.31714244	     11.32001800	      1.01145350	     -7.06934042	      4.53681711	     -5.45304273	      0.15982382	      3.36277423	     -3.78329099	     -1.62173797
      0.59166667	      0.36038754	      5.94944305	     -2.59306609	     -0.77067449	      1.05325498	      0.32651638	     20.67940634	     -1.74240608	     -6.12470396	     -2.10393215	     -2.64840500	     -1.92485953	      0.56762574	    -16.26392724	     11.20586675	      0.29720994	     -7.78885671	      4.54418265	     -4.40544857	      0.42140032	      3.40531581	     -3.69946094	     -1.52446158
      0.59583333	      0.34922462	      5.89729138	     -2.63968997	     -0.76471736	      1.05319913	      0.32661120	     20.59164232	     -1.65790015	     -5.92866156	     -2.49090040	     -2.95335487	     -1.90648695	      0.61457024	    -16.18449189	     11.12903621	      0.04679814	     -8.54149662	      4.32180067	     -4.30625273	      0.47429574	      3.36302287	     -3.59698620	     -1.53851073
      0.60000000	      0.39630694	      5.81398614	     -2.80626904	     -0.75870943	      1.05322019	      0.32715057	     20.40447693	     -1.47946824	     -5.30248802	     -2.79532456	     -3.49182504	     -2.61338338	      0.87919881	    -16.14051132	     11.01677440	     -0.46582176	     -9.32929411	      4.19610072	     -3.58569406	      0.83441715	      3.44308314	     -3.48957207	     -1.45332654
      0.60416667	      0.42236691	      5.74356618	     -2.90950637	     -0.75270956	      1.05326834	      0.32729950	     20.28554383	     -1.37390698	     -5.11456160	     -3.20414272	     -3.88739198	     -2.60959517	      0.95038131	    -16.05647734	     10.92853772	     -0.80957690	    -10.14294303	      3.84453008	     -3.39124947	      0.93669801	      3.45788612	     -3.36928552	     -1.47270564
      0.60833333	      0.46059653	      5.66233003	     -3.03115343	     -0.74667384	      1.05337476	      0.32758529	     20.13388595	     -1.24570693	     -4.79282308	     -3.57771779	     -4.34402482	     -2.79670260	      1.03981964	    -15.95520021	     10.81491434	     -1.25285664	    -11.01067786	      3.46611817	     -2.99711795	      1.08594989	      3.46922287	     -3.23889637	     -1.48756927
      0.61250000	      0.52165111	      5.59356844	     -2.99490988	     -0.74072331	      1.05362447	      0.32750578	     19.93957528	     -1.21195112	     -4.63793283	     -3.95628726	     -4.45747679	     -2.79907440	      1.05394648	    -15.85440470	     10.68341732	     -1.37132770	    -11.96330862	      3.33613084	     -2.96033239	      1.10997344	      3.51668509	     -3.13396678	     -1.49249098
      0.61666667	      0.53888345	      5.47510096	     -3.24471852	     -0.73455744	      1.05370938	      0.32813250	     19.82556806	     -0.99132695	     -4.23469037	     -4.35207320	     -5.15658623	     -3.18536568	      1.13991827	    -15.67424874	     10.53107046	     -2.15006335	    -12.89641686	      2.64278829	     -2.20830415	      1.29396425	      3.49302263	     -2.96049525	     -1.52442068
      0.62083333	      0.52627597	      5.34161832	     -3.18852422	     -0.72838829	      1.05395748	      0.32832636	     19.66243216	     -0.86687866	     -4.00466683	     -4.67407668	     -5.36672610	     -3.36159120	      1.18024410	    -15.43137788	     10.27453442	     -2.51404427	    -13.97775747	      2.40399665	     -1.99299381	      1.38551166	      3.40144244	     -2.84917404	     -1.52387666
      0.62500000	      0.62216219	      5.19815323	     -3.38511740	     -0.72227090	      1.05425155	      0.32915731	     19.38854139	     -0.63102746	     -3.22934311	     -4.94377816	     -6.03769799	     -4.33609853	      1.35428825	    -15.27989063	     10.03267396	     -3.22529882	    -15.03771180	      1.85217998	     -0.93246825	      1.83763357	      3.53832574	     -2.72869577	     -1.44373536
      0.62916667	      0.65394449	      5.09828736	     -3.42843711	     -0.71629517	      1.05452786	      0.32925503	     19.27763331	     -0.54232739	     -3.23119283	     -5.43301065	     -6.18630108	     -4.44149489	      1.38939435	    -15.01410887	      9.84995616	     -3.61416348	    -16.20153924	      1.55321678	     -0.80773151	      1.92986117	      3.40182594	     -2.53632771	     -1.46512865
      0.63333333	      0.74176312	      4.97503990	     -3.59083497	     -0.71025509	      1.05485765	      0.32968344	     19.08791977	     -0.38492362	     -2.93182135	     -5.86833106	     -6.56698439	     -4.75823336	      1.47620293	    -14.79508010	      9.64260903	     -4.16589007	    -17.33835338	      0.70559623	     -0.18949968	      2.18313358	      3.42870232	     -2.32935712	     -1.46650394
      0.63750000	      0.76657073	      4.81708923	     -3.60707421	     -0.70424163	      1.05521006	      0.33033238	     18.87014319	     -0.19239299	     -2.32567627	     -6.14226431	     -7.11353274	     -5.92378987	      2.12830806	    -14.45699251	      9.30051234	     -4.65083592	    -18.63243784	      0.34587417	      0.57362694	      4.23962911	      3.31185169	     -2.04489967	     -1.19708684
      0.64166667	      0.86784562	      4.64964500	     -3.92765943	     -0.69813916	      1.05550962	      0.33112601	     18.66914555	      0.07066532	     -1.83891035	     -6.61625909	     -6.94736169	     -6.10842904	      3.16011274	    -14.20202015	      9.04849310	     -5.47720824	    -19.84905773	     -0.50148735	      0.63162296	      7.59393955	      3.44468076	     -2.12350582	     -1.41000103
      0.64583333	      0.91403393	      4.46877801	     -3.76789987	     -0.69206866	      1.05601034	      0.33098511	     18.47158577	      0.16693430	     -2.07217090	     -7.01411298	     -7.30295241	     -6.03829124	      3.23965828	    -13.84702679	      8.68463760	     -5.60699610	    -21.19584418	     -1.32774046	      1.11218463	      7.87355490	      3.35858391	     -1.77977269	     -1.36063027
